<?xml version="1.0" encoding="UTF-8" standalone="no"?>
<svg
   width="172"
   height="69"
   viewBox="0 0 172 69"
   fill="none"
   version="1.1"
   id="svg2"
   sodipodi:docname="logo-developers.svg"
   inkscape:version="1.3.2 (091e20e, 2023-11-25, custom)"
   xmlns:inkscape="http://www.inkscape.org/namespaces/inkscape"
   xmlns:sodipodi="http://sodipodi.sourceforge.net/DTD/sodipodi-0.dtd"
   xmlns="http://www.w3.org/2000/svg"
   xmlns:svg="http://www.w3.org/2000/svg">
  <defs
     id="defs2">
    <rect
       x="0.47098699"
       y="1.1774673"
       width="92.548943"
       height="28.023726"
       id="rect16" />
  </defs>
  <sodipodi:namedview
     id="namedview2"
     pagecolor="#ffffff"
     bordercolor="#000000"
     borderopacity="0.25"
     inkscape:showpageshadow="2"
     inkscape:pageopacity="0.0"
     inkscape:pagecheckerboard="0"
     inkscape:deskcolor="#d1d1d1"
     inkscape:zoom="2.320708"
     inkscape:cx="134.01083"
     inkscape:cy="32.964078"
     inkscape:window-width="1536"
     inkscape:window-height="793"
     inkscape:window-x="3832"
     inkscape:window-y="-8"
     inkscape:window-maximized="1"
     inkscape:current-layer="g2" />
  <g
     opacity="0.7"
     id="g2">
    <path
       d="M47.43 10.8027V3.75273H49.66C50.4333 3.75273 51.0867 3.8894 51.62 4.16273C52.1533 4.4294 52.5567 4.82607 52.83 5.35273C53.11 5.87273 53.25 6.51273 53.25 7.27273C53.25 8.03273 53.11 8.67607 52.83 9.20273C52.5567 9.7294 52.1533 10.1294 51.62 10.4027C51.0867 10.6694 50.4333 10.8027 49.66 10.8027H47.43ZM48.05 10.2527H49.61C50.6167 10.2527 51.3667 10.0061 51.86 9.51273C52.3533 9.01273 52.6 8.26607 52.6 7.27273C52.6 6.27273 52.3533 5.52607 51.86 5.03273C51.3667 4.5394 50.6167 4.29273 49.61 4.29273H48.05V10.2527ZM56.8823 10.8827C56.1223 10.8827 55.519 10.6561 55.0723 10.2027C54.6323 9.7494 54.4123 9.1194 54.4123 8.31273C54.4123 7.7794 54.509 7.3194 54.7023 6.93273C54.9023 6.54607 55.179 6.24607 55.5323 6.03273C55.8857 5.81273 56.2957 5.70273 56.7623 5.70273C57.209 5.70273 57.5857 5.7994 57.8923 5.99273C58.199 6.1794 58.4357 6.4494 58.6023 6.80273C58.769 7.1494 58.8523 7.56273 58.8523 8.04273V8.32273H54.8523V7.88273H58.4723L58.3023 8.01273C58.3023 7.44607 58.1723 7.00273 57.9123 6.68273C57.6523 6.35607 57.2657 6.19273 56.7523 6.19273C56.2057 6.19273 55.779 6.38273 55.4723 6.76273C55.1657 7.13607 55.0123 7.63273 55.0123 8.25273V8.32273C55.0123 8.9894 55.1757 9.49607 55.5023 9.84273C55.8357 10.1894 56.299 10.3627 56.8923 10.3627C57.199 10.3627 57.4857 10.3161 57.7523 10.2227C58.019 10.1294 58.2757 9.9694 58.5223 9.74273L58.7723 10.1927C58.559 10.4127 58.2823 10.5827 57.9423 10.7027C57.6023 10.8227 57.249 10.8827 56.8823 10.8827ZM61.782 10.8827C61.3954 10.8827 61.032 10.8261 60.692 10.7127C60.3587 10.5994 60.082 10.4427 59.862 10.2427L60.102 9.79273C60.3487 9.99273 60.6154 10.1427 60.902 10.2427C61.1887 10.3361 61.4887 10.3827 61.802 10.3827C62.2287 10.3827 62.552 10.3027 62.772 10.1427C62.992 9.98273 63.102 9.76607 63.102 9.49273C63.102 9.2794 63.032 9.10607 62.892 8.97273C62.752 8.8394 62.5187 8.7394 62.192 8.67273L61.292 8.48273C60.8654 8.38273 60.5454 8.22273 60.332 8.00273C60.1254 7.78273 60.022 7.50607 60.022 7.17273C60.022 6.88607 60.0954 6.63273 60.242 6.41273C60.3954 6.19273 60.612 6.0194 60.892 5.89273C61.172 5.76607 61.502 5.70273 61.882 5.70273C62.242 5.70273 62.572 5.76273 62.872 5.88273C63.1787 5.99607 63.4287 6.1594 63.622 6.37273L63.362 6.81273C63.162 6.61273 62.9354 6.46273 62.682 6.36273C62.4354 6.26273 62.172 6.21273 61.892 6.21273C61.4787 6.21273 61.1654 6.2994 60.952 6.47273C60.7387 6.6394 60.632 6.86273 60.632 7.14273C60.632 7.35607 60.6987 7.53273 60.832 7.67273C60.9654 7.80607 61.1754 7.90607 61.462 7.97273L62.362 8.17273C62.8154 8.27273 63.152 8.42607 63.372 8.63273C63.592 8.8394 63.702 9.11273 63.702 9.45273C63.702 9.74607 63.622 10.0027 63.462 10.2227C63.302 10.4361 63.0787 10.5994 62.792 10.7127C62.5054 10.8261 62.1687 10.8827 61.782 10.8827ZM67.0034 10.8827C66.5501 10.8827 66.1568 10.7794 65.8234 10.5727C65.4901 10.3661 65.2334 10.0694 65.0534 9.68273C64.8734 9.29607 64.7834 8.83273 64.7834 8.29273C64.7834 7.75273 64.8734 7.29273 65.0534 6.91273C65.2401 6.52607 65.5001 6.2294 65.8334 6.02273C66.1668 5.8094 66.5568 5.70273 67.0034 5.70273C67.4634 5.70273 67.8601 5.82273 68.1934 6.06273C68.5334 6.30273 68.7568 6.6294 68.8634 7.04273H68.7434L68.8434 5.79273H69.4334C69.4134 5.98607 69.3934 6.17607 69.3734 6.36273C69.3601 6.5494 69.3534 6.73273 69.3534 6.91273V10.8027H68.7434V9.55273H68.8534C68.7468 9.96607 68.5234 10.2927 68.1834 10.5327C67.8501 10.7661 67.4568 10.8827 67.0034 10.8827ZM67.0834 10.3627C67.5968 10.3627 68.0034 10.1861 68.3034 9.83273C68.6034 9.4794 68.7534 8.96607 68.7534 8.29273C68.7534 7.6194 68.6034 7.10607 68.3034 6.75273C68.0034 6.3994 67.5968 6.22273 67.0834 6.22273C66.5701 6.22273 66.1601 6.3994 65.8534 6.75273C65.5534 7.10607 65.4034 7.6194 65.4034 8.29273C65.4034 8.96607 65.5534 9.4794 65.8534 9.83273C66.1601 10.1861 66.5701 10.3627 67.0834 10.3627ZM71.0016 10.8027V6.96273C71.0016 6.7694 70.995 6.57607 70.9816 6.38273C70.975 6.18273 70.9583 5.98607 70.9316 5.79273H71.5316L71.6116 6.94273L71.4916 6.95273C71.5583 6.67273 71.6783 6.44273 71.8516 6.26273C72.025 6.07607 72.225 5.93607 72.4516 5.84273C72.6783 5.7494 72.9116 5.70273 73.1516 5.70273C73.2383 5.70273 73.3183 5.7094 73.3916 5.72273C73.4716 5.7294 73.545 5.74273 73.6116 5.76273L73.5916 6.31273C73.5116 6.28607 73.4316 6.2694 73.3516 6.26273C73.2716 6.25607 73.185 6.25273 73.0916 6.25273C72.7916 6.25273 72.5283 6.32607 72.3016 6.47273C72.0816 6.6194 71.9116 6.80607 71.7916 7.03273C71.6716 7.2594 71.6116 7.4894 71.6116 7.72273V10.8027H71.0016ZM74.488 10.8027V6.96273C74.488 6.7694 74.4813 6.57607 74.468 6.38273C74.4613 6.18273 74.4446 5.98607 74.418 5.79273H75.018L75.098 6.94273L74.978 6.95273C75.0446 6.67273 75.1646 6.44273 75.338 6.26273C75.5113 6.07607 75.7113 5.93607 75.938 5.84273C76.1646 5.7494 76.398 5.70273 76.638 5.70273C76.7246 5.70273 76.8046 5.7094 76.878 5.72273C76.958 5.7294 77.0313 5.74273 77.098 5.76273L77.078 6.31273C76.998 6.28607 76.918 6.2694 76.838 6.26273C76.758 6.25607 76.6713 6.25273 76.578 6.25273C76.278 6.25273 76.0146 6.32607 75.788 6.47273C75.568 6.6194 75.398 6.80607 75.278 7.03273C75.158 7.2594 75.098 7.4894 75.098 7.72273V10.8027H74.488ZM79.9057 10.8827C79.4324 10.8827 79.0224 10.7794 78.6757 10.5727C78.3357 10.3661 78.0724 10.0694 77.8857 9.68273C77.699 9.29607 77.6057 8.83273 77.6057 8.29273C77.6057 7.7594 77.699 7.2994 77.8857 6.91273C78.0724 6.52607 78.3357 6.2294 78.6757 6.02273C79.0224 5.8094 79.4324 5.70273 79.9057 5.70273C80.3724 5.70273 80.7757 5.8094 81.1157 6.02273C81.4624 6.2294 81.729 6.52607 81.9157 6.91273C82.109 7.2994 82.2057 7.7594 82.2057 8.29273C82.2057 8.83273 82.109 9.29607 81.9157 9.68273C81.729 10.0694 81.4624 10.3661 81.1157 10.5727C80.7757 10.7794 80.3724 10.8827 79.9057 10.8827ZM79.9057 10.3627C80.4124 10.3627 80.819 10.1861 81.1257 9.83273C81.4324 9.4794 81.5857 8.96607 81.5857 8.29273C81.5857 7.6194 81.4324 7.10607 81.1257 6.75273C80.819 6.3994 80.4124 6.22273 79.9057 6.22273C79.3924 6.22273 78.9824 6.3994 78.6757 6.75273C78.3757 7.10607 78.2257 7.6194 78.2257 8.29273C78.2257 8.96607 78.3757 9.4794 78.6757 9.83273C78.9824 10.1861 79.3924 10.3627 79.9057 10.3627ZM83.5409 10.8027V3.44273H84.1509V10.8027H83.5409ZM85.8163 10.8027V3.44273H86.4263V10.8027H85.8163ZM89.9917 10.8827C89.5384 10.8827 89.1451 10.7794 88.8117 10.5727C88.4784 10.3661 88.2217 10.0694 88.0417 9.68273C87.8617 9.29607 87.7717 8.83273 87.7717 8.29273C87.7717 7.75273 87.8617 7.29273 88.0417 6.91273C88.2284 6.52607 88.4884 6.2294 88.8217 6.02273C89.1551 5.8094 89.5451 5.70273 89.9917 5.70273C90.4517 5.70273 90.8484 5.82273 91.1817 6.06273C91.5217 6.30273 91.7451 6.6294 91.8517 7.04273H91.7317L91.8317 5.79273H92.4217C92.4017 5.98607 92.3817 6.17607 92.3617 6.36273C92.3484 6.5494 92.3417 6.73273 92.3417 6.91273V10.8027H91.7317V9.55273H91.8417C91.7351 9.96607 91.5117 10.2927 91.1717 10.5327C90.8384 10.7661 90.4451 10.8827 89.9917 10.8827ZM90.0717 10.3627C90.5851 10.3627 90.9917 10.1861 91.2917 9.83273C91.5917 9.4794 91.7417 8.96607 91.7417 8.29273C91.7417 7.6194 91.5917 7.10607 91.2917 6.75273C90.9917 6.3994 90.5851 6.22273 90.0717 6.22273C89.5584 6.22273 89.1484 6.3994 88.8417 6.75273C88.5417 7.10607 88.3917 7.6194 88.3917 8.29273C88.3917 8.96607 88.5417 9.4794 88.8417 9.83273C89.1484 10.1861 89.5584 10.3627 90.0717 10.3627ZM95.8899 10.8827C95.4433 10.8827 95.0533 10.7794 94.7199 10.5727C94.3866 10.3661 94.1299 10.0694 93.9499 9.68273C93.7699 9.29607 93.6799 8.83273 93.6799 8.29273C93.6799 7.75273 93.7699 7.29273 93.9499 6.91273C94.1299 6.52607 94.3866 6.2294 94.7199 6.02273C95.0533 5.8094 95.4433 5.70273 95.8899 5.70273C96.3499 5.70273 96.7466 5.82273 97.0799 6.06273C97.4199 6.29607 97.6466 6.6194 97.7599 7.03273H97.6399V3.44273H98.2499V10.8027H97.6499V9.54273H97.7599C97.6466 9.96273 97.4199 10.2927 97.0799 10.5327C96.7466 10.7661 96.3499 10.8827 95.8899 10.8827ZM95.9699 10.3627C96.4766 10.3627 96.8833 10.1861 97.1899 9.83273C97.5033 9.4794 97.6599 8.96607 97.6599 8.29273C97.6599 7.6194 97.5033 7.10607 97.1899 6.75273C96.8833 6.3994 96.4766 6.22273 95.9699 6.22273C95.4633 6.22273 95.0566 6.3994 94.7499 6.75273C94.4499 7.10607 94.2999 7.6194 94.2999 8.29273C94.2999 8.96607 94.4499 9.4794 94.7499 9.83273C95.0566 10.1861 95.4633 10.3627 95.9699 10.3627ZM101.888 10.8827C101.415 10.8827 101.005 10.7794 100.658 10.5727C100.318 10.3661 100.055 10.0694 99.8681 9.68273C99.6815 9.29607 99.5881 8.83273 99.5881 8.29273C99.5881 7.7594 99.6815 7.2994 99.8681 6.91273C100.055 6.52607 100.318 6.2294 100.658 6.02273C101.005 5.8094 101.415 5.70273 101.888 5.70273C102.355 5.70273 102.758 5.8094 103.098 6.02273C103.445 6.2294 103.711 6.52607 103.898 6.91273C104.091 7.2994 104.188 7.7594 104.188 8.29273C104.188 8.83273 104.091 9.29607 103.898 9.68273C103.711 10.0694 103.445 10.3661 103.098 10.5727C102.758 10.7794 102.355 10.8827 101.888 10.8827ZM101.888 10.3627C102.395 10.3627 102.801 10.1861 103.108 9.83273C103.415 9.4794 103.568 8.96607 103.568 8.29273C103.568 7.6194 103.415 7.10607 103.108 6.75273C102.801 6.3994 102.395 6.22273 101.888 6.22273C101.375 6.22273 100.965 6.3994 100.658 6.75273C100.358 7.10607 100.208 7.6194 100.208 8.29273C100.208 8.96607 100.358 9.4794 100.658 9.83273C100.965 10.1861 101.375 10.3627 101.888 10.3627ZM108.072 12.9627V6.91273C108.072 6.73273 108.066 6.5494 108.052 6.36273C108.039 6.17607 108.019 5.98607 107.992 5.79273H108.592L108.692 7.04273H108.572C108.686 6.6294 108.906 6.30273 109.232 6.06273C109.559 5.82273 109.956 5.70273 110.422 5.70273C110.876 5.70273 111.266 5.8094 111.592 6.02273C111.926 6.2294 112.186 6.52607 112.372 6.91273C112.559 7.29273 112.652 7.75273 112.652 8.29273C112.652 8.83273 112.559 9.29607 112.372 9.68273C112.192 10.0694 111.936 10.3661 111.602 10.5727C111.269 10.7794 110.876 10.8827 110.422 10.8827C109.962 10.8827 109.566 10.7661 109.232 10.5327C108.906 10.2927 108.686 9.96607 108.572 9.55273H108.682V12.9627H108.072ZM110.342 10.3627C110.856 10.3627 111.266 10.1861 111.572 9.83273C111.879 9.4794 112.032 8.96607 112.032 8.29273C112.032 7.6194 111.879 7.10607 111.572 6.75273C111.266 6.3994 110.856 6.22273 110.342 6.22273C109.836 6.22273 109.429 6.3994 109.122 6.75273C108.822 7.10607 108.672 7.6194 108.672 8.29273C108.672 8.96607 108.822 9.4794 109.122 9.83273C109.429 10.1861 109.836 10.3627 110.342 10.3627ZM115.96 10.8827C115.487 10.8827 115.077 10.7794 114.73 10.5727C114.39 10.3661 114.127 10.0694 113.94 9.68273C113.754 9.29607 113.66 8.83273 113.66 8.29273C113.66 7.7594 113.754 7.2994 113.94 6.91273C114.127 6.52607 114.39 6.2294 114.73 6.02273C115.077 5.8094 115.487 5.70273 115.96 5.70273C116.427 5.70273 116.83 5.8094 117.17 6.02273C117.517 6.2294 117.784 6.52607 117.97 6.91273C118.164 7.2994 118.26 7.7594 118.26 8.29273C118.26 8.83273 118.164 9.29607 117.97 9.68273C117.784 10.0694 117.517 10.3661 117.17 10.5727C116.83 10.7794 116.427 10.8827 115.96 10.8827ZM115.96 10.3627C116.467 10.3627 116.874 10.1861 117.18 9.83273C117.487 9.4794 117.64 8.96607 117.64 8.29273C117.64 7.6194 117.487 7.10607 117.18 6.75273C116.874 6.3994 116.467 6.22273 115.96 6.22273C115.447 6.22273 115.037 6.3994 114.73 6.75273C114.43 7.10607 114.28 7.6194 114.28 8.29273C114.28 8.96607 114.43 9.4794 114.73 9.83273C115.037 10.1861 115.447 10.3627 115.96 10.3627ZM119.586 10.8027V6.96273C119.586 6.7694 119.579 6.57607 119.566 6.38273C119.559 6.18273 119.542 5.98607 119.516 5.79273H120.116L120.196 6.94273L120.076 6.95273C120.142 6.67273 120.262 6.44273 120.436 6.26273C120.609 6.07607 120.809 5.93607 121.036 5.84273C121.262 5.7494 121.496 5.70273 121.736 5.70273C121.822 5.70273 121.902 5.7094 121.976 5.72273C122.056 5.7294 122.129 5.74273 122.196 5.76273L122.176 6.31273C122.096 6.28607 122.016 6.2694 121.936 6.26273C121.856 6.25607 121.769 6.25273 121.676 6.25273C121.376 6.25273 121.112 6.32607 120.886 6.47273C120.666 6.6194 120.496 6.80607 120.376 7.03273C120.256 7.2594 120.196 7.4894 120.196 7.72273V10.8027H119.586ZM123.029 6.64273V5.79273H123.879V6.64273H123.029ZM123.029 10.8027V9.94273H123.879V10.8027H123.029Z"
       fill="#8F90A6"
       id="path1" />
    <text
       xml:space="preserve"
       id="text16"
       style="font-size:16px;font-family:'Patua One';-inkscape-font-specification:'Patua One';white-space:pre;shape-inside:url(#rect16);display:inline;fill:#2b0000;stroke-width:5.53701"
       transform="matrix(2.9871834,0,0,2.9871834,35.048164,8.375548)"><tspan
         x="0.47070312"
         y="15.935733"
         id="tspan2">Logo</tspan></text>
  </g>
</svg>
